<?xml version="1.0"?>
<svg width="600" height="650" xmlns="http://www.w3.org/2000/svg" xmlns:svg="http://www.w3.org/2000/svg" enable-background="new 0 0 595.3 841.9" version="1.1" xml:space="preserve">
 <style type="text/css">.st0{fill:#243871;}
	.st1{fill:#294695;}
	.st2{fill:#315CA6;}
	.st3{fill:#2080C2;}
	.st4{fill:#3EA3D2;}
	.st5{fill:#63BAD9;}
	.st6{fill:#91D1E4;}
	.st7{fill:#FFFFFF;stroke:#FFFFFF;stroke-miterlimit:10;}</style>
 <g class="layer" display="inline">
  <title>Layer 2</title>
  <path d="m24.76,168.01l277.35,-162.01l276.82,160.94l1.07,317.59l-281.11,163.09l-277.89,-163.09l3.76,-316.52z" fill="#ffffff" id="svg_30"/>
 </g>
 <g class="layer">
  <title>Layer 1</title>
  <g id="svg_1" transform="translate(13.3333 16.6667) translate(40.8889 27.2889) matrix(1.52103 0 0 1.52103 -0.466842 -1.07524)">
   <g id="Layer_1" transform="translate(-5 -4) matrix(1 0 0 1 -130 -130)">
    <polygon class="st0" id="XMLID_44_" points="297.9,301.9 297.2,507.3 220.3,462.7  "/>
    <polygon class="st1" id="XMLID_43_" points="297.9,301.9 216.1,460.3 157.8,426.5  "/>
    <polygon class="st2" id="XMLID_42_" points="136,413.8 153.6,424.1 297.6,301.7 136.4,349.9  "/>
    <polygon class="st3" id="XMLID_41_" points="136.4,345 297.9,300.6 136.7,271.2  "/>
    <polygon class="st4" id="XMLID_40_" points="297.9,300.9 136.7,266.3 136.7,228 177,204.9  "/>
    <polygon class="st5" id="XMLID_39_" points="297.9,301.9 181.4,202.5 244.6,166  "/>
    <polygon class="st6" id="XMLID_37_" points="297.9,301.9 249.6,163.2 297.9,135.4  "/>
    <polygon class="st0" id="XMLID_38_" points="297.4,301.9 297.4,507.2 375,462.7  "/>
    <polygon class="st1" id="XMLID_36_" points="297.4,301.9 379.2,460.3 437.5,426.5  "/>
    <polygon class="st2" id="XMLID_35_" points="459.3,413.8 441.7,424.1 297.7,301.7 458.9,349.9  "/>
    <polygon class="st3" id="XMLID_34_" points="458.9,345 297.4,300.6 458.6,271.2  "/>
    <polygon class="st4" id="XMLID_33_" points="297.4,300.9 458.6,266.3 458.6,228 418.3,204.9  "/>
    <polygon class="st6" id="XMLID_31_" points="297.5,301.9 345.8,163.2 297.5,135.4  "/>
    <polygon class="st5" id="XMLID_32_" points="297.4,301.9 413.9,202.5 350.7,166  "/>
   </g>
   <g id="Layer_2" transform="translate(-5 -4) matrix(1 0 0 1 -130 -130)">
    <polygon class="st7" id="XMLID_1_" points="279.8,496.8 278.9,321.2 220.9,321.6 214.7,303.3 223.2,286.6 278.4,288.7 276.6,239.9    297.4,232 319.2,239 317.3,288.7 371.9,286.8 380.7,303.3 374.1,321.6 315.8,321.6 314.8,496.8 297.2,507.3  "/>
   </g>
  </g>
  <line fill="none" id="svg_23" opacity="0.5" x1="66.5" x2="66.5" y1="87" y2="87"/>
 </g>
</svg>