<?xml version="1.0" encoding="utf-8"?>
<!-- Generator: Adobe Illustrator 19.0.0, SVG Export Plug-In . SVG Version: 6.00 Build 0)  -->
<svg version="1.1" xmlns="http://www.w3.org/2000/svg" xmlns:xlink="http://www.w3.org/1999/xlink" x="0px" y="0px"
	 viewBox="0 0 595.3 841.9" style="enable-background:new 0 0 595.3 841.9;" xml:space="preserve">
<style type="text/css">
	.st0{fill:#243871;}
	.st1{fill:#294695;}
	.st2{fill:#315CA6;}
	.st3{fill:#2080C2;}
	.st4{fill:#3EA3D2;}
	.st5{fill:#63BAD9;}
	.st6{fill:#91D1E4;}
	.st7{fill:#FFFFFF;stroke:#FFFFFF;stroke-miterlimit:10;}
</style>
<g id="Layer_1">
	<polygon id="XMLID_44_" class="st0" points="297.9,301.9 297.2,507.3 220.3,462.7 	"/>
	<polygon id="XMLID_43_" class="st1" points="297.9,301.9 216.1,460.3 157.8,426.5 	"/>
	<polygon id="XMLID_42_" class="st2" points="136,413.8 153.6,424.1 297.6,301.7 136.4,349.9 	"/>
	<polygon id="XMLID_41_" class="st3" points="136.4,345 297.9,300.6 136.7,271.2 	"/>
	<polygon id="XMLID_40_" class="st4" points="297.9,300.9 136.7,266.3 136.7,228 177,204.9 	"/>
	<polygon id="XMLID_39_" class="st5" points="297.9,301.9 181.4,202.5 244.6,166 	"/>
	<polygon id="XMLID_37_" class="st6" points="297.9,301.9 249.6,163.2 297.9,135.4 	"/>
	<polygon id="XMLID_38_" class="st0" points="297.4,301.9 297.4,507.2 375,462.7 	"/>
	<polygon id="XMLID_36_" class="st1" points="297.4,301.9 379.2,460.3 437.5,426.5 	"/>
	<polygon id="XMLID_35_" class="st2" points="459.3,413.8 441.7,424.1 297.7,301.7 458.9,349.9 	"/>
	<polygon id="XMLID_34_" class="st3" points="458.9,345 297.4,300.6 458.6,271.2 	"/>
	<polygon id="XMLID_33_" class="st4" points="297.4,300.9 458.6,266.3 458.6,228 418.3,204.9 	"/>
	<polygon id="XMLID_31_" class="st6" points="297.5,301.9 345.8,163.2 297.5,135.4 	"/>
	<polygon id="XMLID_32_" class="st5" points="297.4,301.9 413.9,202.5 350.7,166 	"/>
</g>
<g id="Layer_2">
	<polygon id="XMLID_1_" class="st7" points="279.8,496.8 278.9,321.2 220.9,321.6 214.7,303.3 223.2,286.6 278.4,288.7 276.6,239.9 
		297.4,232 319.2,239 317.3,288.7 371.9,286.8 380.7,303.3 374.1,321.6 315.8,321.6 314.8,496.8 297.2,507.3 	"/>
</g>
</svg>
