<?xml version="1.0"?>
<svg width="600" height="650" xmlns="http://www.w3.org/2000/svg" xmlns:svg="http://www.w3.org/2000/svg" enable-background="new 0 0 595.3 841.9" version="1.1" xml:space="preserve">
 <style type="text/css">.st0{fill:#243871;}
	.st1{fill:#294695;}
	.st2{fill:#315CA6;}
	.st3{fill:#2080C2;}
	.st4{fill:#3EA3D2;}
	.st5{fill:#63BAD9;}
	.st6{fill:#91D1E4;}
	.st7{fill:#FFFFFF;stroke:#FFFFFF;stroke-miterlimit:10;}</style>
 <g class="layer" display="inline">
  <title>Layer 3</title>
  <path d="m92.31,488.65l176.15,-156.35l0,22.69l-93.46,180.77l-82.69,-47.12z" fill="#000000" fill-opacity="0" id="svg_70" stroke="#000000" stroke-linecap="round" stroke-linejoin="round" stroke-width="7"/>
  <path d="m271.82,371.05l-78.68,171.71c0,0 77.94,46.55 77.94,45.39c0,-1.16 1.11,-215.56 0.74,-217.11z" fill="#000000" fill-opacity="0" id="svg_71" stroke="#000000" stroke-linecap="round" stroke-linejoin="round" stroke-width="7"/>
  <path d="m251.92,332.88c0,0 -52.31,0 -52.69,-0.19c-0.38,-0.19 -139.62,42.12 -139.62,42.12c0,0 -0.77,90 -0.77,89.81c0,-0.19 22.31,12.5 22.31,12.31c0,-0.19 167.69,-141.73 167.69,-141.73c0,0 3.08,-2.31 3.08,-2.31z" fill="#000000" fill-opacity="0" id="svg_72" stroke="#000000" stroke-linecap="round" stroke-linejoin="round" stroke-width="7"/>
  <path d="m58.85,358.65c0,0 0.38,-101.15 0.38,-101.15c0,0 121.54,21.15 121.54,20.96c0,-0.19 -11.92,22.5 -12.31,22.31c-0.38,-0.19 10.77,26.73 10.77,26.73c0,0 -120.38,31.15 -120.38,31.15z" fill="#000000" fill-opacity="0" id="svg_73" stroke="#000000" stroke-linecap="round" stroke-linejoin="round" stroke-width="7"/>
  <path d="m58.33,243.33c0,0 -0.37,-56.67 -0.56,-56.67c-0.19,0 58.7,-33.33 58.52,-33.33c-0.19,0 145.37,119.26 145.37,119.26c0,0 -65.93,-1.11 -66.11,-1.11c-0.19,0 -137.22,-28.15 -137.22,-28.15z" fill="#000000" fill-opacity="0" id="svg_74" stroke="#000000" stroke-linecap="round" stroke-linejoin="round" stroke-width="7"/>
  <path d="m264.63,260.74l-0.93,-41.11l-47.04,-120l-83.33,48.15l131.3,112.96z" fill="#000000" fill-opacity="0" id="svg_80" stroke="#000000" stroke-linecap="round" stroke-linejoin="round" stroke-width="7"/>
  <path d="m270.19,198.15l-37.59,-108.15l68.89,-40l68.89,39.63l-38.52,106.67l-31.48,-11.48l-30.19,13.33z" fill="#000000" fill-opacity="0" id="svg_81" stroke="#000000" stroke-linecap="round" stroke-linejoin="round" stroke-width="7"/>
  <path d="m383.15,95.93l90.93,51.85l-135.93,110.37c0,0 0.56,-43.33 0.56,-43.33c0,0 44.44,-118.89 44.44,-118.89z" fill="#000000" fill-opacity="0" id="svg_83" stroke="#000000" stroke-linecap="round" stroke-linejoin="round" stroke-width="7"/>
  <path d="m340.53,271.32l145.26,-115l57.37,32.11l0,53.16l-133.68,27.37l-68.95,2.37z" fill="#000000" fill-opacity="0" id="svg_84" stroke="#000000" stroke-linecap="round" stroke-linejoin="round" stroke-width="7"/>
  <path d="m420.53,278.68c0,0 123.16,-23.16 123.16,-23.16c0,0 0.53,105.26 0.53,104.74c0,-0.53 -121.05,-32.63 -121.05,-32.89c0,-0.26 8.95,-26.05 8.95,-26.05c0,0 -11.58,-22.63 -11.58,-22.63z" fill="#000000" fill-opacity="0" id="svg_85" stroke="#000000" stroke-linecap="round" stroke-linejoin="round" stroke-width="7"/>
  <path d="m350,333.42l53.16,-0.26l138.42,43.68l0.53,87.89l-21.58,12.63l-170.53,-143.95z" fill="#000000" fill-opacity="0" id="svg_89" stroke="#000000" stroke-linecap="round" stroke-linejoin="round" stroke-width="7"/>
  <path d="m332.63,334.47l0,14.47l94.21,180l77.89,-42.11l-172.11,-152.37z" fill="#000000" fill-opacity="0" id="svg_92" stroke="#000000" stroke-linecap="round" stroke-linejoin="round" stroke-width="7"/>
  <path d="m332.92,372.08l-0.38,214.08l79.38,-45.6l-79,-168.48z" fill="#000000" fill-opacity="0" id="svg_94" stroke="#000000" stroke-linecap="round" stroke-linejoin="round" stroke-width="7"/>
 </g>
</svg>